REM DIRINDEX 1\2,1\3,1\4
REM DIRNAME folder01,folder02,folder03,folder04
TITLE ""
FILE "Disk1Track34.mp3" MP3
  TRACK 01 AUDIO
    TITLE "2:cjc032_0219"
    INDEX 01 00:00:00
  TRACK 02 AUDIO
    TITLE "2:cjc032_0220"
    INDEX 01 00:04:03
  TRACK 03 AUDIO
    TITLE "2:cjc032_0221"
    INDEX 01 00:17:23
  TRACK 04 AUDIO
    TITLE "2:cjc032_0222"
    INDEX 01 00:25:11
  TRACK 05 AUDIO
    TITLE "0:"
    INDEX 01 00:39:23
